<svg width="28" height="27" viewBox="0 0 28 27" fill="none" xmlns="http://www.w3.org/2000/svg"><mask id="a" maskUnits="userSpaceOnUse" x="0" y="0" width="28" height="27"><path fill-rule="evenodd" clip-rule="evenodd" d="M.5 13.417C.5 6.007 6.507 0 13.917 0s13.417 6.007 13.417 13.417-6.007 13.416-13.417 13.416S.5 20.827.5 13.417z" fill="#fff"/></mask><g mask="url(#a)" fill-rule="evenodd" clip-rule="evenodd"><path d="M.5 13.417C.5 6.007 6.507 0 13.917 0s13.417 6.007 13.417 13.417-6.007 13.416-13.417 13.416S.5 20.827.5 13.417z" fill="#F9FAFE"/><path d="M13.918 6.261c-1.943 0-2.187.009-2.95.043-.762.035-1.282.156-1.737.333-.47.183-.87.427-1.268.825a3.513 3.513 0 00-.826 1.267c-.177.455-.298.976-.332 1.737-.034.763-.043 1.007-.043 2.95 0 1.944.008 2.187.043 2.95.035.762.156 1.282.332 1.737.183.47.428.87.826 1.268.397.398.796.643 1.267.826.455.177.975.297 1.737.332.763.035 1.007.043 2.95.043 1.944 0 2.187-.008 2.95-.043.762-.035 1.282-.155 1.738-.332a3.5 3.5 0 001.266-.826c.398-.398.643-.797.826-1.268.176-.455.297-.975.333-1.736.034-.764.043-1.007.043-2.95 0-1.944-.01-2.188-.043-2.95-.036-.763-.157-1.283-.333-1.738a3.513 3.513 0 00-.826-1.267 3.498 3.498 0 00-1.267-.825c-.456-.177-.976-.298-1.738-.333-.763-.034-1.006-.043-2.95-.043h.002zm-.642 1.29h.642c1.91 0 2.137.006 2.892.04.697.033 1.076.15 1.328.247.334.13.572.285.822.535.25.25.406.49.536.823.098.252.215.63.246 1.329.034.754.042.98.042 2.89 0 1.91-.008 2.136-.042 2.89-.032.698-.148 1.077-.246 1.329-.13.334-.285.572-.536.822-.25.25-.488.405-.822.535-.252.099-.63.215-1.329.247-.754.034-.98.041-2.891.041-1.91 0-2.137-.007-2.891-.041-.698-.032-1.077-.15-1.33-.247a2.216 2.216 0 01-.822-.535 2.218 2.218 0 01-.536-.823c-.097-.252-.214-.63-.246-1.328-.034-.754-.041-.98-.041-2.892 0-1.91.007-2.136.041-2.89.032-.698.149-1.077.246-1.329a2.22 2.22 0 01.536-.823c.25-.25.489-.405.823-.535.252-.099.63-.215 1.329-.247.66-.03.916-.039 2.25-.04v.002zm4.462 1.188a.859.859 0 100 1.717.859.859 0 000-1.718zm-3.82 1.003a3.675 3.675 0 100 7.35 3.675 3.675 0 000-7.35zm0 1.29a2.385 2.385 0 110 4.77 2.385 2.385 0 010-4.77z" fill="#000"/></g></svg>