<svg width="28" height="27" viewBox="0 0 28 27" fill="none" xmlns="http://www.w3.org/2000/svg"><path fill-rule="evenodd" clip-rule="evenodd" d="M.833 13.417C.833 6.007 6.84 0 14.25 0s13.417 6.007 13.417 13.417S21.66 26.833 14.25 26.833.833 20.827.833 13.417z" fill="#4C6C91"/><path fill-rule="evenodd" clip-rule="evenodd" d="M14.952 17.82s.258-.029.39-.168c.122-.128.118-.369.118-.369s-.017-1.126.516-1.292c.525-.164 1.2 1.089 1.914 1.57.54.364.951.285.951.285l1.912-.026s1-.06.525-.832c-.039-.064-.276-.571-1.42-1.614-1.2-1.092-1.039-.916.405-2.804.879-1.15 1.23-1.853 1.12-2.153-.104-.287-.75-.21-.75-.21l-2.152.012s-.16-.021-.278.048c-.116.068-.19.227-.19.227s-.34.89-.795 1.647c-.958 1.597-1.341 1.681-1.498 1.582-.365-.231-.274-.929-.274-1.424 0-1.548.24-2.193-.465-2.36-.234-.056-.406-.092-1.005-.098-.768-.008-1.417.002-1.785.179-.245.117-.434.38-.319.395.142.019.464.085.635.313.22.295.213.956.213.956s.127 1.822-.296 2.048c-.29.155-.688-.161-1.542-1.61-.438-.742-.768-1.563-.768-1.563s-.064-.153-.178-.235c-.138-.1-.33-.13-.33-.13l-2.045.012s-.307.008-.42.14c-.1.116-.007.357-.007.357s1.6 3.676 3.413 5.53c1.663 1.698 3.55 1.587 3.55 1.587h.855z" fill="#fff"/></svg>