<svg width="28" height="27" viewBox="0 0 28 27" fill="none" xmlns="http://www.w3.org/2000/svg"><path fill-rule="evenodd" clip-rule="evenodd" d="M.667 13.417C.667 6.007 6.674 0 14.084 0S27.5 6.007 27.5 13.417s-6.006 13.416-13.416 13.416S.667 20.827.667 13.417z" fill="red"/><path fill-rule="evenodd" clip-rule="evenodd" d="M20.94 10.103a1.817 1.817 0 00-1.265-1.299c-1.116-.307-5.591-.307-5.591-.307s-4.475 0-5.591.307a1.82 1.82 0 00-1.266 1.3c-.299 1.145-.299 3.536-.299 3.536s0 2.391.3 3.537c.164.632.649 1.13 1.265 1.3 1.116.306 5.59.306 5.59.306s4.476 0 5.592-.307a1.817 1.817 0 001.265-1.299c.3-1.146.3-3.537.3-3.537s0-2.39-.3-3.537z" fill="#fff"/><path fill-rule="evenodd" clip-rule="evenodd" d="M12.742 16.1v-4.472l3.578 2.236-3.578 2.236z" fill="red"/></svg>